<svg width="48" height="49" viewBox="0 0 48 49" fill="none" xmlns="http://www.w3.org/2000/svg">
<path d="M23.9178 48.3651C14.4554 49.7452 4.56517 45.605 1.3887 35.1376C-2.2713 23.2938 1.25852 7.87534 12.5101 2.49283C26.3095 -3.83823 45.1116 6.65154 47.8231 22.773C49.735 37.3397 35.7756 47.1934 23.9215 48.3614" fill="#FEC508"/>
<mask id="mask0_7794_18697" style="mask-type:luminance" maskUnits="userSpaceOnUse" x="8" y="8" width="32" height="33">
<path d="M40 8.62305H8V40.6231H40V8.62305Z" fill="white"/>
</mask>
<g mask="url(#mask0_7794_18697)">
<mask id="mask1_7794_18697" style="mask-type:luminance" maskUnits="userSpaceOnUse" x="8" y="8" width="32" height="33">
<path d="M40 8.62305H8V40.6231H40V8.62305Z" fill="white"/>
</mask>
<g mask="url(#mask1_7794_18697)">
<path d="M24.4705 33.9026C24.4705 33.6453 24.6775 33.4383 24.9348 33.4383H29.5716C29.8289 33.4383 30.0359 33.6453 30.0359 33.9026C30.0359 34.1598 29.8289 34.3669 29.5716 34.3669H24.9348C24.6775 34.3669 24.4705 34.1598 24.4705 33.9026ZM24.4705 32.0516C24.4705 31.7943 24.6775 31.5873 24.9348 31.5873H29.5716C29.8289 31.5873 30.0359 31.7943 30.0359 32.0516C30.0359 32.3088 29.8289 32.5159 29.5716 32.5159H24.9348C24.6775 32.5159 24.4705 32.3088 24.4705 32.0516ZM24.4705 28.3433C24.4705 28.0861 24.6775 27.879 24.9348 27.879H29.5716C29.8289 27.879 30.0359 28.0861 30.0359 28.3433C30.0359 28.6006 29.8289 28.8077 29.5716 28.8077H24.9348C24.6775 28.8077 24.4705 28.6006 24.4705 28.3433ZM24.4705 26.4861C24.4705 26.2288 24.6775 26.0218 24.9348 26.0218H29.5716C29.8289 26.0218 30.0359 26.2288 30.0359 26.4861C30.0359 26.7433 29.8289 26.9504 29.5716 26.9504H24.9348C24.6775 26.9504 24.4705 26.7433 24.4705 26.4861ZM24.4705 22.7779C24.4705 22.5206 24.6775 22.3135 24.9348 22.3135H29.5716C29.8289 22.3135 30.0359 22.5206 30.0359 22.7779C30.0359 23.0351 29.8289 23.2422 29.5716 23.2422H24.9348C24.6775 23.2422 24.4705 23.0351 24.4705 22.7779ZM24.4705 20.9206C24.4705 20.6633 24.6775 20.4563 24.9348 20.4563H29.5716C29.8289 20.4563 30.0359 20.6633 30.0359 20.9206C30.0359 21.1779 29.8289 21.3849 29.5716 21.3849H24.9348C24.6775 21.3849 24.4705 21.1779 24.4705 20.9206ZM18.1144 34.2351C17.9324 34.0532 17.9324 33.7582 18.1144 33.5763C18.2963 33.3943 18.5912 33.3943 18.7732 33.5763L19.3693 34.1786L21.8226 31.719C22.0046 31.5371 22.2995 31.5371 22.4814 31.719C22.6634 31.901 22.6634 32.1959 22.4814 32.3779L19.7018 35.1575C19.6077 35.2453 19.4948 35.2892 19.3756 35.2892C19.2563 35.2892 19.1371 35.2453 19.043 35.1575L18.1144 34.2288V34.2351ZM18.1144 28.6696C17.9324 28.4877 17.9324 28.1928 18.1144 28.0108C18.2963 27.8288 18.5912 27.8288 18.7732 28.0108L19.3693 28.6132L21.8226 26.1535C22.0046 25.9716 22.2995 25.9716 22.4814 26.1535C22.6634 26.3355 22.6634 26.6304 22.4814 26.8124L19.7018 29.592C19.6077 29.6798 19.4948 29.7237 19.3756 29.7237C19.2563 29.7237 19.1371 29.6798 19.043 29.592L18.1144 28.6633V28.6696ZM18.1144 23.1041C17.9324 22.9222 17.9324 22.6273 18.1144 22.4453C18.2963 22.2633 18.5912 22.2633 18.7732 22.4453L19.3693 23.0477L21.8226 20.5881C22.0046 20.4061 22.2995 20.4061 22.4814 20.5881C22.6634 20.77 22.6634 21.0649 22.4814 21.2469L19.7018 24.0265C19.6077 24.1143 19.4948 24.1583 19.3756 24.1583C19.2563 24.1583 19.1371 24.1143 19.043 24.0265L18.1144 23.0979V23.1041ZM24.0124 12.5755C23.5042 12.5755 23.0838 12.1614 23.0838 11.6469C23.0838 11.1324 23.5042 10.7182 24.0124 10.7182C24.5206 10.7182 24.941 11.1324 24.941 11.6469C24.941 12.1614 24.5206 12.5755 24.0124 12.5755ZM27.2563 11.6532H25.8634C25.8634 11.3143 25.763 11.0006 25.6061 10.7245C25.2799 10.1724 24.6901 9.7959 24.0061 9.7959C23.3222 9.7959 22.7324 10.1724 22.4061 10.7245C22.2493 11.0006 22.1489 11.3143 22.1489 11.6532H20.7559C20.4987 11.6532 20.2916 11.8602 20.2916 12.1175V13.9747C20.2916 14.232 20.4987 14.439 20.7559 14.439H27.2501C27.5073 14.439 27.7144 14.232 27.7144 13.9747V12.1175C27.7144 11.8602 27.5073 11.6532 27.2501 11.6532H27.2563ZM31.4289 37.6108H16.5897V17.2124H31.4289V37.6108ZM32.3575 13.5041H28.6493V13.9684C28.6493 14.7339 28.0218 15.3614 27.2563 15.3614H20.7622C19.9967 15.3614 19.3693 14.7339 19.3693 13.9684V13.5041H15.661C15.1528 13.5041 14.7324 13.9183 14.7324 14.4328V38.5394C14.7324 39.0477 15.1528 39.4681 15.661 39.4681H32.3512C32.8595 39.4681 33.2799 39.0539 33.2799 38.5394V14.4328C33.2799 13.9245 32.8595 13.5041 32.3512 13.5041H32.3575Z" fill="#00625F"/>
</g>
</g>
</svg>
