<svg width="57" height="56" viewBox="0 0 57 56" fill="none" xmlns="http://www.w3.org/2000/svg">
<rect x="4.5" y="4" width="48" height="48" rx="24" fill="#D0E2E2"/>
<rect x="4.5" y="4" width="48" height="48" rx="24" stroke="#EAF2F2" stroke-width="8"/>
<path d="M28.4998 24V28M28.4998 32H28.5098M26.7898 18.86L18.3198 33C18.1451 33.3024 18.0527 33.6453 18.0518 33.9945C18.0508 34.3437 18.1413 34.6871 18.3142 34.9905C18.4871 35.2939 18.7365 35.5467 19.0375 35.7238C19.3385 35.9009 19.6806 35.9961 20.0298 36H36.9698C37.319 35.9961 37.6611 35.9009 37.9621 35.7238C38.2631 35.5467 38.5124 35.2939 38.6854 34.9905C38.8583 34.6871 38.9488 34.3437 38.9478 33.9945C38.9468 33.6453 38.8544 33.3024 38.6798 33L30.2098 18.86C30.0315 18.5661 29.7805 18.3231 29.481 18.1544C29.1814 17.9858 28.8435 17.8972 28.4998 17.8972C28.156 17.8972 27.8181 17.9858 27.5186 18.1544C27.2191 18.3231 26.968 18.5661 26.7898 18.86Z" stroke="#01625F" stroke-width="2" stroke-linecap="round" stroke-linejoin="round"/>
</svg>
