<svg width="40" height="54" viewBox="0 0 40 54" fill="none" xmlns="http://www.w3.org/2000/svg">
<path d="M13.3798 32.6533C11.9332 30.38 12.4073 27.2557 15.3857 24.4475C19.0449 21.0192 24.5399 20.7153 26.3512 20.7153C26.7402 20.7153 26.9469 20.7153 26.9469 20.7153C26.9469 20.7153 27.2751 26.4776 24.0293 31.0486C22.2179 33.6016 19.7136 34.9388 17.4889 34.9388C16.9053 34.9388 16.334 34.8537 15.8112 34.6592C15.0575 34.4404 14.4861 34.0514 14.2551 33.7839C14.2551 33.7839 14.6199 33.0424 14.7657 32.7627C15.2885 31.6686 15.9571 30.6353 16.6743 29.6871C17.4402 28.6659 18.0602 28.0216 18.4371 27.6325C20.832 25.1161 21.5736 25.1161 22.3151 24.4596C22.3516 24.4231 22.3273 24.411 22.2543 24.411C21.5614 24.411 16.3461 25.9914 13.3798 32.6533ZM19.7865 14.3694C26.7281 14.3694 32.3689 19.998 32.3689 26.9396C32.3689 33.8812 26.7402 39.5098 19.7865 39.5098C12.8328 39.5098 7.20417 33.8812 7.20417 26.9396C7.20417 19.998 12.8328 14.3694 19.7865 14.3694ZM2.54807 48.8463C0.846107 50.5118 -2.04721 53.8914 3.16808 53.8914H36.3928C41.6081 53.8914 38.7147 50.4996 37.0128 48.8463C41.5838 38.7804 39.3712 17.6153 35.092 6.73489C36.7088 5.10587 39.6265 1.93294 34.8002 1.17922C32.1136 0.765884 27.4332 0 19.7744 0C12.1155 0 7.43512 0.765884 4.74846 1.17922C-0.0778174 1.93294 2.83984 5.10587 4.4567 6.73489C0.165332 17.6153 -2.03508 38.7804 2.5359 48.8463H2.54807Z" fill="white"/>
</svg>
