<svg width="62" height="62" viewBox="0 0 62 62" fill="none" xmlns="http://www.w3.org/2000/svg">
<mask id="mask0_9116_23997" style="mask-type:luminance" maskUnits="userSpaceOnUse" x="0" y="0" width="62" height="62">
<path d="M62 0H0V62H62V0Z" fill="white"/>
</mask>
<g mask="url(#mask0_9116_23997)">
<mask id="mask1_9116_23997" style="mask-type:luminance" maskUnits="userSpaceOnUse" x="0" y="0" width="62" height="62">
<path d="M62 0H0V62H62V0Z" fill="white"/>
</mask>
<g mask="url(#mask1_9116_23997)">
<path d="M39.789 55.5203C43.9345 57.2466 48.9553 55.5689 52.6875 49.8674C58.2553 41.3697 55.4835 29.7842 55.4835 29.7842C55.4835 29.7842 45.9282 30.9027 39.3514 37.5403C34.7074 42.2207 33.5525 48.1897 35.7773 52.0799C36.3486 53.247 37.1631 54.0737 37.6616 54.3897C37.6616 54.3897 38.78 53.5752 39.2055 53.247C40.8588 52.0678 42.3663 50.694 43.7157 49.2352C45.1867 47.7034 46.0741 46.4878 46.5969 45.7462C50.0494 41.1144 49.8306 39.8744 50.6937 38.4642C51.1192 37.7591 50.9733 47.9952 39.789 55.5082V55.5203ZM19.9369 10.3454C22.7086 10.394 27.6322 11.3058 31.4373 16.5454C35.6922 22.405 41.4424 21.5905 42.6702 21.3474C44.1412 16.2901 41.1628 10.3211 35.449 7.43991C29.5894 4.47364 22.9031 5.81089 19.949 10.3454H19.9369ZM41.8071 23.3533C40.9926 23.4262 39.9471 23.4383 38.7435 23.2438C36.3122 22.867 32.8231 21.5905 29.9541 17.6274C26.1126 12.327 20.9945 12.0838 19.0129 12.2176C17.1408 17.3964 20.1314 23.6936 26.0518 26.6842C32.1059 29.7356 39.011 28.2282 41.8071 23.3411V23.3533ZM7.02628 41.4548C6.72235 41.7588 6.35766 42.087 5.93217 42.4274C5.8106 42.5246 5.87137 42.7191 6.01725 42.7313C6.17529 42.7313 6.34549 42.7313 6.49137 42.7313H6.72235C8.27843 42.6948 9.62785 42.1721 10.8314 41.2725C11.0867 41.078 11.342 40.8713 11.5851 40.6403C11.7067 40.5309 11.8282 40.4093 11.9498 40.2878L12.1079 40.1297C12.1079 40.1297 12.1929 40.0203 12.2537 39.996C12.2659 39.996 12.2902 39.996 12.3024 39.996C12.4239 39.996 12.4969 40.154 12.5577 40.227C12.6549 40.3364 12.7522 40.458 12.8494 40.5552C13.0439 40.774 13.2506 40.9807 13.4694 41.1874C13.9071 41.5764 14.3933 41.9168 14.9282 42.1599C15.3294 42.3423 15.7427 42.4638 16.1561 42.5246C16.3749 42.5611 16.5816 42.5733 16.8004 42.5733C17.3961 42.5733 17.9918 42.4517 18.5388 42.2085C18.6726 42.1599 18.7941 42.0019 18.6361 41.8803C16.0467 40.0446 15.9008 37.7105 15.9008 37.1513C15.9008 36.9932 16.1196 36.9689 16.2412 36.9325C16.4235 36.8717 16.6302 36.7987 16.8126 36.7136C17.1651 36.5556 17.5055 36.3489 17.8094 36.118C19.1831 35.0968 19.9976 33.5529 20.3988 32.5925C20.4718 32.4223 20.5204 32.2642 20.569 32.1427C20.6176 32.0211 20.5204 31.9238 20.411 31.9238C20.3745 31.9238 20.3381 31.9238 20.3137 31.9482C20.0098 32.167 19.7302 32.3493 19.4506 32.5195C15.9737 34.6713 14.8431 33.3097 12.5455 34.5984C12.5212 34.5984 12.4969 34.6105 12.4604 34.6105C12.4118 34.6105 12.351 34.5862 12.3145 34.5376C12.3024 34.5133 12.278 34.4889 12.2659 34.4525C11.8647 33.8811 11.2569 32.787 11.3906 31.6321C11.4392 31.2309 10.2965 31.1336 9.65216 31.1336C9.39687 31.1336 9.21451 31.1337 9.21451 31.158C9.21451 33.0544 9.40903 33.8568 10.5882 35.7411C10.6126 35.7897 10.6004 35.887 10.5518 35.9356C8.66744 37.7227 9.1902 39.2423 7.02628 41.4184V41.4548ZM8.78902 51.5815C7.22078 49.4783 6.51568 46.9984 6.56431 44.5427H6.79529C8.61882 44.494 10.3573 43.8862 11.9133 42.7313C12.0106 42.6583 12.12 42.5732 12.2294 42.4882L12.278 42.5368C12.8737 43.0717 13.5059 43.4972 14.1745 43.7889C14.7337 44.0442 15.3173 44.2266 15.9008 44.3117C16.1926 44.3603 16.4965 44.3846 16.8004 44.3846C17.6271 44.3846 18.4416 44.2144 19.2318 43.8862C19.9369 43.5944 20.4231 42.9744 20.4961 42.245C20.5812 41.5521 20.2651 40.8591 19.6816 40.4458C18.6239 39.6921 18.1255 38.8532 17.8945 38.2089C18.2349 38.0266 18.5631 37.8199 18.8792 37.5889C20.5447 36.3611 21.5173 34.574 22.0522 33.3097C22.1008 33.1881 22.1373 33.0909 22.1737 32.9815C24.5322 33.6501 26.6596 35.036 28.2035 37.1148C32.0451 42.2815 30.8294 49.7093 25.4682 53.6968C20.1071 57.6964 12.6306 56.736 8.78902 51.5815Z" fill="white"/>
</g>
</g>
</svg>
