<svg width="48" height="48" viewBox="0 0 48 48" fill="none" xmlns="http://www.w3.org/2000/svg">
<path d="M23.9178 47.7421C14.4554 49.1221 4.56517 44.982 1.3887 34.5145C-2.2713 22.6708 1.25852 7.2523 12.5101 1.86978C26.3095 -4.46128 45.1116 6.02849 47.8231 22.15C49.735 36.7166 35.7756 46.5703 23.9215 47.7383" fill="#FFC505"/>
<mask id="mask0_7092_22068" style="mask-type:luminance" maskUnits="userSpaceOnUse" x="8" y="7" width="32" height="33">
<path d="M40 7.5H8V39.5H40V7.5Z" fill="white"/>
</mask>
<g mask="url(#mask0_7092_22068)">
<mask id="mask1_7092_22068" style="mask-type:luminance" maskUnits="userSpaceOnUse" x="8" y="7" width="32" height="33">
<path d="M40 7.5H8V39.5H40V7.5Z" fill="white"/>
</mask>
<g mask="url(#mask1_7092_22068)">
<path d="M24.4705 32.78C24.4705 32.5228 24.6775 32.3157 24.9348 32.3157H29.5716C29.8289 32.3157 30.0359 32.5228 30.0359 32.78C30.0359 33.0373 29.8289 33.2443 29.5716 33.2443H24.9348C24.6775 33.2443 24.4705 33.0373 24.4705 32.78ZM24.4705 30.929C24.4705 30.6718 24.6775 30.4647 24.9348 30.4647H29.5716C29.8289 30.4647 30.0359 30.6718 30.0359 30.929C30.0359 31.1863 29.8289 31.3933 29.5716 31.3933H24.9348C24.6775 31.3933 24.4705 31.1863 24.4705 30.929ZM24.4705 27.2208C24.4705 26.9635 24.6775 26.7565 24.9348 26.7565H29.5716C29.8289 26.7565 30.0359 26.9635 30.0359 27.2208C30.0359 27.478 29.8289 27.6851 29.5716 27.6851H24.9348C24.6775 27.6851 24.4705 27.478 24.4705 27.2208ZM24.4705 25.3635C24.4705 25.1063 24.6775 24.8992 24.9348 24.8992H29.5716C29.8289 24.8992 30.0359 25.1063 30.0359 25.3635C30.0359 25.6208 29.8289 25.8278 29.5716 25.8278H24.9348C24.6775 25.8278 24.4705 25.6208 24.4705 25.3635ZM24.4705 21.6553C24.4705 21.398 24.6775 21.191 24.9348 21.191H29.5716C29.8289 21.191 30.0359 21.398 30.0359 21.6553C30.0359 21.9126 29.8289 22.1196 29.5716 22.1196H24.9348C24.6775 22.1196 24.4705 21.9126 24.4705 21.6553ZM24.4705 19.798C24.4705 19.5408 24.6775 19.3337 24.9348 19.3337H29.5716C29.8289 19.3337 30.0359 19.5408 30.0359 19.798C30.0359 20.0553 29.8289 20.2624 29.5716 20.2624H24.9348C24.6775 20.2624 24.4705 20.0553 24.4705 19.798ZM18.1144 33.1126C17.9324 32.9306 17.9324 32.6357 18.1144 32.4537C18.2963 32.2718 18.5912 32.2718 18.7732 32.4537L19.3693 33.0561L21.8226 30.5965C22.0046 30.4145 22.2995 30.4145 22.4814 30.5965C22.6634 30.7784 22.6634 31.0733 22.4814 31.2553L19.7018 34.0349C19.6077 34.1227 19.4948 34.1667 19.3756 34.1667C19.2563 34.1667 19.1371 34.1227 19.043 34.0349L18.1144 33.1063V33.1126ZM18.1144 27.5471C17.9324 27.3651 17.9324 27.0702 18.1144 26.8882C18.2963 26.7063 18.5912 26.7063 18.7732 26.8882L19.3693 27.4906L21.8226 25.031C22.0046 24.849 22.2995 24.849 22.4814 25.031C22.6634 25.2129 22.6634 25.5078 22.4814 25.6898L19.7018 28.4694C19.6077 28.5573 19.4948 28.6012 19.3756 28.6012C19.2563 28.6012 19.1371 28.5573 19.043 28.4694L18.1144 27.5408V27.5471ZM18.1144 21.9816C17.9324 21.7996 17.9324 21.5047 18.1144 21.3227C18.2963 21.1408 18.5912 21.1408 18.7732 21.3227L19.3693 21.9251L21.8226 19.4655C22.0046 19.2835 22.2995 19.2835 22.4814 19.4655C22.6634 19.6475 22.6634 19.9424 22.4814 20.1243L19.7018 22.9039C19.6077 22.9918 19.4948 23.0357 19.3756 23.0357C19.2563 23.0357 19.1371 22.9918 19.043 22.9039L18.1144 21.9753V21.9816ZM24.0124 11.4529C23.5042 11.4529 23.0838 11.0388 23.0838 10.5243C23.0838 10.0098 23.5042 9.59569 24.0124 9.59569C24.5206 9.59569 24.941 10.0098 24.941 10.5243C24.941 11.0388 24.5206 11.4529 24.0124 11.4529ZM27.2563 10.5306H25.8634C25.8634 10.1918 25.763 9.87804 25.6061 9.60196C25.2799 9.04981 24.6901 8.67334 24.0061 8.67334C23.3222 8.67334 22.7324 9.04981 22.4061 9.60196C22.2493 9.87804 22.1489 10.1918 22.1489 10.5306H20.7559C20.4987 10.5306 20.2916 10.7377 20.2916 10.9949V12.8522C20.2916 13.1094 20.4987 13.3165 20.7559 13.3165H27.2501C27.5073 13.3165 27.7144 13.1094 27.7144 12.8522V10.9949C27.7144 10.7377 27.5073 10.5306 27.2501 10.5306H27.2563ZM31.4289 36.4882H16.5897V16.0898H31.4289V36.4882ZM32.3575 12.3816H28.6493V12.8459C28.6493 13.6114 28.0218 14.2388 27.2563 14.2388H20.7622C19.9967 14.2388 19.3693 13.6114 19.3693 12.8459V12.3816H15.661C15.1528 12.3816 14.7324 12.7957 14.7324 13.3102V37.4169C14.7324 37.9251 15.1528 38.3455 15.661 38.3455H32.3512C32.8595 38.3455 33.2799 37.9314 33.2799 37.4169V13.3102C33.2799 12.802 32.8595 12.3816 32.3512 12.3816H32.3575Z" fill="#00625F"/>
</g>
</g>
</svg>
