<svg width="48" height="48" viewBox="0 0 48 48" fill="none" xmlns="http://www.w3.org/2000/svg">
<path d="M23.9178 47.7421C14.4554 49.1221 4.56517 44.982 1.3887 34.5145C-2.2713 22.6708 1.25852 7.2523 12.5101 1.86978C26.3095 -4.46128 45.1116 6.02849 47.8231 22.15C49.735 36.7166 35.7756 46.5703 23.9215 47.7383" fill="#FFC505"/>
<mask id="mask0_7092_22050" style="mask-type:luminance" maskUnits="userSpaceOnUse" x="8" y="8" width="32" height="32">
<path d="M40 8H8V40H40V8Z" fill="white"/>
</mask>
<g mask="url(#mask0_7092_22050)">
<mask id="mask1_7092_22050" style="mask-type:luminance" maskUnits="userSpaceOnUse" x="8" y="8" width="32" height="32">
<path d="M40 8H8V40H40V8Z" fill="white"/>
</mask>
<g mask="url(#mask1_7092_22050)">
<path d="M36.9945 30.8078C36.9945 30.9271 36.9004 31.0149 36.7874 31.0149H36.2666C36.2039 31.3474 36.0658 31.6549 35.8839 31.931L36.2541 32.2949C36.3357 32.3765 36.3357 32.502 36.2541 32.5898L35.8212 33.0227C35.7396 33.1043 35.6141 33.1043 35.5325 33.0227L35.1686 32.6588C34.8925 32.8408 34.5851 32.9663 34.2525 33.0353V33.5561C34.2525 33.669 34.1584 33.7631 34.0455 33.7631H33.4306C33.3114 33.7631 33.2235 33.669 33.2235 33.5561V33.0353C32.891 32.9725 32.5835 32.8408 32.3074 32.6588L31.9435 33.0227C31.8619 33.1043 31.7364 33.1043 31.6549 33.0227L31.2219 32.5898C31.1404 32.5082 31.1404 32.3765 31.2219 32.2949L31.5921 31.931C31.4039 31.6549 31.2784 31.3537 31.2094 31.0149H30.6886C30.5756 31.0149 30.4815 30.9271 30.4815 30.8078V30.1929C30.4815 30.08 30.5756 29.9859 30.6886 29.9859H31.2094C31.2721 29.6596 31.4039 29.3459 31.5921 29.0698L31.2219 28.7059C31.1404 28.6243 31.1404 28.4988 31.2219 28.4172L31.6549 27.9843C31.7364 27.9027 31.8619 27.9027 31.9435 27.9843L32.3074 28.3545C32.5835 28.1725 32.8847 28.0408 33.2235 27.9718V27.451C33.2235 27.338 33.3114 27.2439 33.4306 27.2439H34.0455C34.1584 27.2439 34.2525 27.338 34.2525 27.451V27.9718C34.5788 28.0345 34.8925 28.1725 35.1686 28.3545L35.5325 27.9843C35.6141 27.9027 35.7396 27.9027 35.8212 27.9843L36.2541 28.4172C36.3357 28.4988 36.3357 28.6243 36.2541 28.7059L35.8839 29.0698C36.0658 29.3459 36.1976 29.6533 36.2666 29.9859H36.7874C36.9004 29.9859 36.9945 30.08 36.9945 30.1929V30.8078ZM34.1208 25.142C33.8447 25.142 33.5749 25.1608 33.3051 25.1984C30.5568 25.4557 27.3192 27.6016 27.7647 30.7702C28.2666 33.5749 31.1466 35.5953 33.9137 35.5953C34.6164 35.5953 35.3066 35.4635 35.9529 35.1874C38.5568 34.0141 39.3788 30.6572 38.5317 28.0784C37.8854 26.0831 36.0408 25.142 34.1208 25.142ZM35.2878 30.2933C35.4196 31.3098 34.56 32.1631 33.5435 32.0376C32.8533 31.9498 32.2949 31.3914 32.207 30.7012C32.0753 29.6847 32.9349 28.8314 33.9513 28.9568C34.6415 29.0447 35.2 29.6031 35.2878 30.2933ZM15.931 17.9827C15.931 14.9082 18.3027 12.4172 21.2329 12.4172C24.1631 12.4172 26.5349 14.9082 26.5349 17.9827C26.5349 21.0572 24.1631 23.5482 21.2329 23.5482C18.3027 23.5482 15.931 21.0572 15.931 17.9827ZM13.3459 30.0361H16.1255C16.3827 30.0361 16.5898 30.2431 16.5898 30.5004C16.5898 30.7576 16.3827 30.9647 16.1255 30.9647H13.3459C13.0886 30.9647 12.8816 30.7576 12.8816 30.5004C12.8816 30.2431 13.0886 30.0361 13.3459 30.0361ZM21.2266 35.6016C24.3576 35.6016 27.2878 35.4823 29.4776 35.0306C28.1223 34.0141 27.1372 32.571 26.8423 30.9396V30.9082C26.6416 29.5153 27.018 28.1788 27.9278 27.0306C28.1851 26.7043 28.4799 26.4094 28.8062 26.1333C27.8462 25.7819 26.6792 25.4996 25.2611 25.3114L21.5278 28.5302C21.4462 28.6055 21.3333 28.6431 21.2266 28.6431C21.12 28.6431 21.007 28.6055 20.9254 28.5302L17.1859 25.3114C9.31135 26.3341 9.17956 30.4 9.16701 32.2196C9.15446 35.0871 14.7702 35.6016 21.2204 35.6016H21.2266Z" fill="#00625F"/>
</g>
</g>
</svg>
