<svg width="48" height="48" viewBox="0 0 48 48" fill="none" xmlns="http://www.w3.org/2000/svg">
<path d="M23.9178 47.7421C14.4554 49.1221 4.56517 44.982 1.3887 34.5145C-2.2713 22.6708 1.25852 7.2523 12.5101 1.86978C26.3095 -4.46128 45.1116 6.02849 47.8231 22.15C49.735 36.7166 35.7756 46.5703 23.9215 47.7383" fill="#FFC505"/>
<mask id="mask0_7092_22059" style="mask-type:luminance" maskUnits="userSpaceOnUse" x="8" y="8" width="32" height="32">
<path d="M40 8H8V40H40V8Z" fill="white"/>
</mask>
<g mask="url(#mask0_7092_22059)">
<mask id="mask1_7092_22059" style="mask-type:luminance" maskUnits="userSpaceOnUse" x="8" y="8" width="32" height="32">
<path d="M40 8H8V40H40V8Z" fill="white"/>
</mask>
<g mask="url(#mask1_7092_22059)">
<path d="M31.1019 35.884C31.1082 37.6095 27.8078 37.917 24.0054 37.917C20.2031 37.917 16.9027 37.6095 16.909 35.884C16.9152 34.6354 17.0156 31.5985 24.0054 31.5985C30.9952 31.5985 31.0893 34.6354 31.1019 35.884ZM27.1301 27.4197C27.1301 29.3021 25.7309 30.8268 24.0117 30.8268C22.2925 30.8268 20.8932 29.3021 20.8932 27.4197C20.8932 25.5373 22.2925 24.0126 24.0117 24.0126C25.7309 24.0126 27.1301 25.5373 27.1301 27.4197ZM18.327 26.4409C18.327 27.7899 17.3293 28.8817 16.0995 28.8817C14.8697 28.8817 13.8721 27.7899 13.8721 26.4409C13.8721 25.0919 14.8697 24.0064 16.0995 24.0064C17.3293 24.0064 18.327 25.0981 18.327 26.4409ZM20.7615 30.946C18.4274 31.3915 16.9529 32.3828 16.3317 33.9515C16.2501 33.9515 16.1811 33.9515 16.0995 33.9515C13.3827 33.9515 11.0235 33.7319 11.0297 32.5021C11.0297 31.6048 11.1113 29.4401 16.0995 29.4401C18.9858 29.4401 20.2219 30.1617 20.7615 30.946ZM34.1513 26.4409C34.1513 27.7899 33.1537 28.8817 31.9238 28.8817C30.694 28.8817 29.6964 27.7899 29.6964 26.4409C29.6964 25.0919 30.694 24.0064 31.9238 24.0064C33.1537 24.0064 34.1513 25.0981 34.1513 26.4409ZM36.9937 32.5021C36.9937 33.7319 34.6407 33.9515 31.9238 33.9515C31.8423 33.9515 31.7733 33.9515 31.6917 33.9515C31.0705 32.3828 29.6023 31.3915 27.2619 30.946C27.8015 30.1617 29.0376 29.4401 31.9238 29.4401C36.9184 29.4401 36.9937 31.6111 36.9937 32.5021ZM31.4533 16.364C30.6564 14.444 29.5458 12.8566 28.2407 11.7648C30.3615 12.524 32.2125 13.8479 33.6305 15.5421C32.9278 15.8558 32.1999 16.1256 31.4533 16.364ZM24.4697 17.506V11.0558C26.9795 11.2942 29.2195 13.4401 30.5685 16.6401C28.6046 17.1797 26.5466 17.4746 24.4697 17.5123V17.506ZM23.5474 17.506C21.4705 17.4683 19.4125 17.1734 17.4485 16.6338C18.7976 13.4401 21.0376 11.2942 23.5474 11.0495V17.4997V17.506ZM16.5701 16.364C15.8234 16.1256 15.1019 15.8558 14.3929 15.5421C15.8046 13.8479 17.6619 12.524 19.7827 11.7648C18.4776 12.8566 17.367 14.444 16.5701 16.364ZM24.0117 10.1021C16.5952 10.1021 10.5654 16.1319 10.5654 23.5483C10.5654 25.5938 11.0235 27.5577 11.8893 29.3522C12.1466 29.2079 12.4289 29.0824 12.7364 28.9758C11.927 27.3005 11.494 25.4621 11.494 23.5483C11.494 20.8503 12.3537 18.353 13.8093 16.3075C14.5937 16.6589 15.4031 16.9726 16.2313 17.2424C15.7607 18.5852 15.4281 20.0723 15.2838 21.6534C15.2336 22.1742 15.2085 22.695 15.2023 23.2221C15.4846 23.1342 15.7795 23.084 16.0933 23.084H16.1309C16.1435 22.6322 16.1623 22.1805 16.2062 21.735C16.3442 20.2166 16.658 18.786 17.1097 17.4997C19.1803 18.077 21.345 18.397 23.5411 18.4346V23.1154C23.6917 23.0966 23.8486 23.084 24.0054 23.084C24.1623 23.084 24.3129 23.0966 24.4697 23.1154V18.4346C26.6595 18.397 28.8305 18.0832 30.9011 17.4997C31.3529 18.786 31.6666 20.2103 31.8046 21.735C31.8486 22.1805 31.8674 22.6322 31.8799 23.084H31.9176C32.225 23.084 32.5262 23.1342 32.8085 23.2221C32.8085 22.695 32.7834 22.1679 32.727 21.6534C32.5827 20.0723 32.2564 18.5852 31.7795 17.2424C32.6078 16.9726 33.4235 16.6652 34.2078 16.3075C35.6635 18.353 36.5231 20.8503 36.5231 23.5483C36.5231 25.437 36.0901 27.2942 35.2744 28.9758C35.5881 29.0824 35.8705 29.2079 36.1278 29.3522C36.9874 27.5515 37.4517 25.5687 37.4517 23.5483C37.4517 16.1381 31.4219 10.1021 24.0054 10.1021H24.0117Z" fill="#00625F"/>
</g>
</g>
</svg>
