<svg width="48" height="48" viewBox="0 0 48 48" fill="none" xmlns="http://www.w3.org/2000/svg">
<path d="M23.9178 47.7421C14.4554 49.1221 4.56517 44.982 1.3887 34.5145C-2.2713 22.6708 1.25852 7.2523 12.5101 1.86978C26.3095 -4.46128 45.1116 6.02849 47.8231 22.15C49.735 36.7166 35.7756 46.5703 23.9215 47.7383" fill="#01625F"/>
<mask id="mask0_8640_7032" style="mask-type:luminance" maskUnits="userSpaceOnUse" x="8" y="8" width="32" height="32">
<path d="M40 8H8V40H40V8Z" fill="white"/>
</mask>
<g mask="url(#mask0_8640_7032)">
<mask id="mask1_8640_7032" style="mask-type:luminance" maskUnits="userSpaceOnUse" x="8" y="8" width="32" height="32">
<path d="M40 8H8V40H40V8Z" fill="white"/>
</mask>
<g mask="url(#mask1_8640_7032)">
<path d="M11.3186 34.2839C10.8982 33.8635 10.9359 33.1733 11.4002 32.8031L19.8017 26.0831C20.2033 25.7694 20.768 25.7945 21.1257 26.1584L21.8598 26.8925C22.2174 27.2502 22.2488 27.8212 21.9351 28.2165L15.2151 36.618C14.8449 37.0823 14.1547 37.12 13.7343 36.6996L11.3249 34.2902L11.3186 34.2839ZM28.6488 13.8102C31.7233 13.8102 34.2143 16.3012 34.2143 19.3757C34.2143 22.4502 31.7233 24.9412 28.6488 24.9412C25.5743 24.9412 23.0833 22.4502 23.0833 19.3757C23.0833 16.3012 25.5743 13.8102 28.6488 13.8102ZM28.6488 27.7208C33.2606 27.7208 36.9939 23.9812 36.9939 19.3757C36.9939 14.7702 33.2543 11.0306 28.6488 11.0306C24.0433 11.0306 20.3037 14.7702 20.3037 19.3757C20.3037 23.9812 24.0433 27.7208 28.6488 27.7208Z" fill="white"/>
</g>
</g>
</svg>
